<?xml version="1.0" encoding="UTF-8"?>
<svg id="Layer_2" data-name="Layer 2" xmlns="http://www.w3.org/2000/svg" viewBox="0 0 40 40">
  <defs>
    <style>
      .cls-1 {
        fill: none;
      }
    </style>
  </defs>
  <g id="Layer_1-2" data-name="Layer 1">
    <g id="protest">
      <path d="M25.45,27l1.05-3.91-1.7-.47-1.91-12.27.11-.41c.29-1.03,1.34-1.64,2.37-1.35l4.69,1.26.6-2.23,2.91.78-.6,2.23,5.45,1.46c1.03.29,1.64,1.34,1.36,2.37l-2.57,9.51c-.27,1.03-1.32,1.63-2.36,1.36l-5.46-1.46-2.04,7.59-2.9-.78.32-1.21.67-2.48Z"/>
      <path d="M16.8,30.81l.2,1.27.97,6.23-4.01.63-.96-6.24-.2-1.26-.19-1.27-5.2.8c-.85.13-1.61-.49-1.75-1.36L2.54,9.49c-.13-.88.43-1.71,1.26-1.83l5.19-.81-.2-1.25-.19-1.27-.02-.16,4-.61.03.16.19,1.27.19,1.25,5-.77c.08-.01.16-.01.23-.01.74,0,1.4.59,1.52,1.37l1.51,9.65.84,5.43.78,5.05c.06.44-.04.87-.29,1.22-.22.34-.57.55-.97.61l-5,.77.19,1.26Z"/>
      <rect class="cls-1" width="40" height="40"/>
    </g>
  </g>
</svg>