<?xml version="1.0" encoding="UTF-8"?>
<svg id="Layer_2" data-name="Layer 2" xmlns="http://www.w3.org/2000/svg" viewBox="0 0 40 40">
  <defs>
    <style>
      .cls-1 {
        fill: none;
      }
    </style>
  </defs>
  <g id="Layer_1-2" data-name="Layer 1">
    <g id="turnout">
      <path id="turnout-2" data-name="turnout" d="M11.8,12.22c0-2.14.85-4.19,2.36-5.71,1.51-1.51,3.57-2.36,5.71-2.36s4.19.85,5.71,2.36c1.51,1.51,2.36,3.57,2.36,5.71s-.85,4.19-2.36,5.7c-1.51,1.51-3.57,2.36-5.71,2.36s-4.19-.85-5.71-2.36c-1.51-1.51-2.36-3.57-2.36-5.7ZM21.04,21.14h-2.34c-3.2,0-6.27,1.28-8.54,3.54-2.26,2.26-3.54,5.33-3.54,8.54,0,1.27.87,2.38,2.11,2.68,3.64.92,7.39,1.38,11.14,1.38,3.76,0,7.5-.46,11.14-1.38,1.24-.3,2.11-1.41,2.11-2.68,0-3.2-1.28-6.27-3.54-8.54-2.26-2.26-5.33-3.54-8.54-3.54h0Z"/>
      <rect class="cls-1" width="40" height="40"/>
    </g>
  </g>
</svg>