<?xml version="1.0" encoding="UTF-8"?>
<svg version="1.1" viewBox="0 0 1200 1200"
  xmlns="http://www.w3.org/2000/svg" width="100%"
  height="100%">
  <path fill="currentColor"
    d="m706.2 740.23 20.438-76.117-33.047-9.1328-37.199-238.98 2.1836-8.0391c5.6641-20.004 26.09-31.957 46.105-26.305l91.32 24.59 11.746-43.488 56.746 15.203-11.746 43.488 106.12 28.5c20.004 5.6523 31.957 26.074 26.52 46.078l-50.004 185.27c-5.2188 20.004-25.656 31.754-45.875 26.52l-106.33-28.465-39.793 147.85-56.52-15.227 6.3008-23.496z" />
  <path fill="currentColor"
    d="m537.67 814.37 3.9102 24.781 18.926 121.33-78.059 12.191-18.707-121.57-3.9102-24.574-3.6953-24.77-101.33 15.648c-16.512 2.6172-31.297-9.5508-34.141-26.52l-60.648-391.62c-2.6211-17.188 8.457-33.266 24.547-35.664l101.1-15.852-3.9102-24.359-3.6953-24.793-0.44531-3.0352 77.844-11.953 0.66016 3.0586 3.6953 24.742 3.6953 24.383 97.43-15.023c1.5-0.21484 3.0352-0.21484 4.5586-0.21484 14.352 0 27.18 11.531 29.555 26.746l29.375 187.88 16.297 105.66 15.227 98.293c1.0781 8.4727-0.86328 16.945-5.6758 23.699-4.3203 6.5273-11.09 10.668-18.91 11.965l-97.402 15.012z" />
</svg>